<?xml version="1.0" encoding="UTF-8" standalone="no"?>
<svg
   xmlns:dc="http://purl.org/dc/elements/1.1/"
   xmlns:cc="http://creativecommons.org/ns#"
   xmlns:rdf="http://www.w3.org/1999/02/22-rdf-syntax-ns#"
   xmlns:svg="http://www.w3.org/2000/svg"
   xmlns="http://www.w3.org/2000/svg"
   xmlns:xlink="http://www.w3.org/1999/xlink"
   xmlns:sodipodi="http://sodipodi.sourceforge.net/DTD/sodipodi-0.dtd"
   xmlns:inkscape="http://www.inkscape.org/namespaces/inkscape"
   width="100"
   height="100"
   viewBox="0 0 26.458331 26.458331"
   version="1.1"
   id="svg8"
   inkscape:version="1.0.2 (e86c870879, 2021-01-15)"
   sodipodi:docname="ball_size_up.svg">
  <defs
     id="defs2">
    <linearGradient
       inkscape:collect="always"
       id="linearGradient874-5">
      <stop
         style="stop-color:#b6b6b6;stop-opacity:1"
         offset="0"
         id="stop870" />
      <stop
         style="stop-color:#ffffff;stop-opacity:0.49803922"
         offset="0.5"
         id="stop884" />
      <stop
         style="stop-color:#1c1c1c;stop-opacity:0"
         offset="1"
         id="stop872" />
    </linearGradient>
    <linearGradient
       inkscape:collect="always"
       xlink:href="#linearGradient874-5"
       id="linearGradient882"
       x1="15.470826"
       y1="7.1604843"
       x2="15.619623"
       y2="24.858139"
       gradientUnits="userSpaceOnUse"
       spreadMethod="reflect"
       gradientTransform="matrix(0.77959685,0,0,0.73237101,0.75561528,1.5112301)" />
  </defs>
  <sodipodi:namedview
     id="base"
     pagecolor="#ffffff"
     bordercolor="#666666"
     borderopacity="1.0"
     inkscape:pageopacity="0.0"
     inkscape:pageshadow="2"
     inkscape:zoom="4.6225371"
     inkscape:cx="36.02874"
     inkscape:cy="30.234451"
     inkscape:document-units="px"
     inkscape:current-layer="layer1"
     inkscape:document-rotation="0"
     showgrid="false"
     units="px"
     inkscape:window-width="1918"
     inkscape:window-height="1158"
     inkscape:window-x="0"
     inkscape:window-y="20"
     inkscape:window-maximized="0" />
  <metadata
     id="metadata5">
    <rdf:RDF>
      <cc:Work
         rdf:about="">
        <dc:format>image/svg+xml</dc:format>
        <dc:type
           rdf:resource="http://purl.org/dc/dcmitype/StillImage" />
        <dc:title></dc:title>
      </cc:Work>
    </rdf:RDF>
  </metadata>
  <g
     inkscape:label="Layer 1"
     inkscape:groupmode="layer"
     id="layer1"
     style="display:inline">
    <path
       id="path1385"
       style="fill:#69ff72;fill-opacity:1;stroke:#18c300;stroke-width:0.52916662;stroke-linecap:butt;stroke-linejoin:round;stroke-miterlimit:4;stroke-dasharray:none;stroke-opacity:1;paint-order:normal"
       d="m 17.4215,12.842841 c 0.01707,-0.0053 0.01417,-0.03355 0.003,-0.07113 -0.01466,0.04547 -0.02011,0.07638 -0.003,0.07113 z m 0.003,-0.07113 c 0.147976,-0.458934 1.766546,-3.2492068 2.125266,-3.6638041 -0.480235,0.2560781 -3.519507,1.1896101 -3.990183,1.2255781 0.108691,0.0662 0.333997,0.310835 0.59267,0.622783 L 15.16555,11.74697 c -0.291372,0.233486 -0.341878,0.661119 -0.113225,0.958648 0.228654,0.297531 0.647435,0.349105 0.938806,0.115619 l 0.984401,-0.788838 c 0.234061,0.332311 0.412236,0.615284 0.448991,0.739312 z m -1.864912,-2.43823 c -0.03291,-0.02006 -0.05888,-0.0299 -0.06796,-0.01423 -0.0091,0.01565 0.02139,0.01779 0.06796,0.01423 z m 3.99018,-1.2255771 c 0.04753,-0.025345 0.07898,-0.046475 0.071,-0.056902 -0.008,-0.010421 -0.03552,0.015883 -0.071,0.056902 z" />
    <path
       id="path1385-2"
       style="display:inline;fill:#69ff72;fill-opacity:1;stroke:#18c300;stroke-width:0.52916662;stroke-linecap:butt;stroke-linejoin:round;stroke-miterlimit:4;stroke-dasharray:none;stroke-opacity:1;paint-order:normal"
       d="m 9.5354944,14.156213 c -0.017071,0.0053 -0.014166,0.03355 -0.00304,0.07113 0.014654,-0.04547 0.020104,-0.07639 0.00304,-0.07113 z m -0.00304,0.07113 c -0.1479182,0.458943 -1.7659051,3.249278 -2.1244962,3.663885 0.480062,-0.256085 3.5182398,-1.189637 3.9887448,-1.225605 -0.108652,-0.0662 -0.333876,-0.310842 -0.592455,-0.622798 l 0.98637,-0.79072 c 0.291272,-0.233493 0.34176,-0.661133 0.113188,-0.958669 -0.228571,-0.297537 -0.647201,-0.349111 -0.938466,-0.115621 L 9.9813016,14.966672 C 9.7473257,14.634355 9.5692142,14.351376 9.532472,14.227343 Z m 1.8642446,2.438285 c 0.03291,0.02006 0.05886,0.0299 0.06793,0.01423 0.0091,-0.01565 -0.02139,-0.01779 -0.06793,-0.01423 z M 7.4079601,17.89123 c -0.04751,0.02534 -0.078953,0.04647 -0.070977,0.0569 0.008,0.01039 0.035507,-0.01588 0.070977,-0.0569 z" />
    <path
       id="path1385-8"
       style="display:inline;fill:#69ff72;fill-opacity:1;stroke:#18c300;stroke-width:0.529167;stroke-linecap:butt;stroke-linejoin:round;stroke-miterlimit:4;stroke-dasharray:none;stroke-opacity:1;paint-order:normal"
       d="m 17.364647,14.162517 c 0.01708,0.0053 0.01417,0.03355 0.003,0.07113 -0.01466,-0.04546 -0.02012,-0.07638 -0.003,-0.07113 z m 0.003,0.07113 c 0.147998,0.458925 1.766813,3.24914 2.125587,3.66373 -0.480307,-0.256073 -3.520038,-1.189586 -3.990786,-1.225552 0.108708,-0.0662 0.334048,-0.31083 0.592759,-0.622772 l -0.986848,-0.79069 c -0.291416,-0.233481 -0.34193,-0.661105 -0.113242,-0.958627 0.228689,-0.297525 0.647533,-0.349098 0.938948,-0.115617 l 0.984549,0.788823 c 0.234096,-0.332305 0.412298,-0.615272 0.449059,-0.739299 z m -1.865168,2.438178 c -0.03292,0.02006 -0.05889,0.0299 -0.06797,0.01423 -0.0091,-0.01565 0.02141,-0.01779 0.06797,-0.01423 z m 3.990784,1.225551 c 0.04754,0.02534 0.07899,0.04648 0.07101,0.05689 -0.008,0.01042 -0.03552,-0.01588 -0.07101,-0.05689 z" />
    <path
       id="path1433"
       style="fill:#69ff72;fill-opacity:1;stroke:#18c300;stroke-width:0.52916662;stroke-linecap:butt;stroke-linejoin:round;stroke-miterlimit:4;stroke-dasharray:none;stroke-opacity:1;paint-order:normal"
       d="m 9.053894,12.373787 c -0.017083,-0.0053 -0.014175,-0.03356 -0.00302,-0.07115 0.014663,0.04547 0.020117,0.07639 0.00302,0.07115 z m -0.00302,-0.07115 C 8.9028494,11.84361 7.2837922,9.0527385 6.924964,8.638053 7.4053435,8.8941855 10.44553,9.8279171 10.916348,9.8638931 10.807624,9.9301061 10.582251,10.174795 10.3235,10.486811 l 0.987024,0.790871 c 0.291458,0.233536 0.341979,0.66126 0.113257,0.958853 -0.228722,0.297595 -0.647629,0.349179 -0.939087,0.115643 L 9.4999957,11.56317 C 9.265865,11.895552 9.0876362,12.178587 9.0508696,12.302642 Z m 1.865473,-2.4387489 c 0.03293,-0.02006 0.0589,-0.02991 0.06798,-0.01423 0.0091,0.01566 -0.0214,0.01779 -0.06798,0.01423 z M 6.9249611,8.6380501 c -0.047541,-0.025351 -0.079004,-0.04649 -0.071023,-0.05692 0.008,-0.010419 0.035531,0.015888 0.071023,0.05692 z" />
    <ellipse
       style="fill:#6981ff;fill-opacity:1;stroke:#0018c3;stroke-width:0.52916662;stroke-miterlimit:4;stroke-dasharray:none;stroke-opacity:1"
       id="path1292"
       cx="13.229165"
       cy="13.229165"
       rx="2.9482138"
       ry="2.9482141" />
  </g>
</svg>
